<svg width="64" height="64" viewBox="0 0 64 64" fill="none" xmlns="http://www.w3.org/2000/svg">
    <rect width="64" height="64" rx="32" fill="#0C0A09"/>
    <path d="M22.3362 22.2691C24.8153 19.8069 28.23 18.2857 32.0001 18.2857C32.394 18.2857 32.7841 18.3023 33.1696 18.3349C33.5413 18.3662 33.8804 18.1119 33.9618 17.7478C34.7406 14.261 37.2897 11.4422 40.6165 10.2838C40.9271 10.1756 40.959 9.7255 40.6522 9.60687C37.968 8.56907 35.0505 8 32.0001 8C28.4732 8 25.1239 8.7608 22.1075 10.1272C21.8663 10.2364 21.7144 10.4783 21.7144 10.743V22.022C21.7144 22.3379 22.1121 22.4916 22.3362 22.2691Z" fill="#FAFAF9"/>
    <path d="M46.2482 51.3148C46.0253 51.4794 45.7143 51.3183 45.7143 51.0409V32C45.7143 31.6061 45.6979 31.216 45.6653 30.8305C45.6338 30.4588 45.8882 30.1197 46.2523 30.0384C49.7392 29.2595 52.5578 26.7104 53.7163 23.3836C53.8243 23.0729 54.2745 23.0411 54.3931 23.3479C55.431 26.0321 56.0001 28.9496 56.0001 32C56.0001 39.92 52.1639 46.9438 46.2482 51.3148Z" fill="#FAFAF9"/>
    <path d="M50.8572 20C50.8572 23.7871 47.7872 26.8571 44 26.8571C40.2128 26.8571 37.1428 23.7871 37.1428 20C37.1428 16.2129 40.2128 13.1428 44 13.1428C47.7872 13.1428 50.8572 16.2129 50.8572 20Z" fill="#EF4444"/>
    <path d="M10.2838 40.6163C10.1756 40.927 9.72551 40.9589 9.60688 40.652C8.56908 37.9679 8 35.0504 8 32C8 24.0801 11.8362 17.0562 17.7519 12.6852C17.9748 12.5204 18.2858 12.6819 18.2858 12.959V32C18.2858 32.3939 18.3024 32.784 18.3349 33.1695C18.3663 33.5412 18.112 33.8803 17.7479 33.9617C14.2611 34.7405 11.4422 37.2896 10.2838 40.6163Z" fill="#FAFAF9"/>
    <path d="M41.8925 53.8729C42.1338 53.7635 42.2857 53.5218 42.2857 53.2571V41.9778C42.2857 41.6621 41.888 41.5085 41.6638 41.731C39.1849 44.193 35.77 45.7143 31.9999 45.7143C31.606 45.7143 31.216 45.6978 30.8305 45.6653C30.4588 45.6337 30.1197 45.8881 30.0383 46.2522C29.2595 49.7391 26.7103 52.5577 23.3835 53.7162C23.0728 53.8246 23.041 54.2744 23.3478 54.393C26.032 55.4309 28.9495 56 31.9999 56C35.5269 56 38.8763 55.2392 41.8925 53.8729Z" fill="#FAFAF9"/>
    <path d="M26.8574 44C26.8574 47.7872 23.7874 50.8571 20.0002 50.8571C16.2131 50.8571 13.1431 47.7872 13.1431 44C13.1431 40.2128 16.2131 37.1429 20.0002 37.1429C23.7874 37.1429 26.8574 40.2128 26.8574 44Z" fill="#EF4444"/>
    </svg>
    