<svg width="48" height="48" viewBox="0 0 48 48" fill="none" xmlns="http://www.w3.org/2000/svg">
    <rect width="48" height="48" rx="24" fill="black"/>
    <path d="M15.9468 15.8909C18.0127 13.8391 20.8583 12.5714 24 12.5714C24.3283 12.5714 24.6533 12.5852 24.9746 12.6124C25.2844 12.6385 25.567 12.4266 25.6347 12.1232C26.2838 9.21751 28.408 6.86846 31.1803 5.90312C31.4392 5.81298 31.4658 5.43789 31.2101 5.33904C28.9733 4.47421 26.542 3.99998 24 3.99998C21.0609 3.99998 18.2699 4.63398 15.7562 5.77264C15.5552 5.86367 15.4286 6.06521 15.4286 6.28581V15.685C15.4286 15.9482 15.76 16.0763 15.9468 15.8909Z" fill="#FAFAF9"/>
    <path d="M35.8734 40.0956C35.6877 40.2327 35.4285 40.0984 35.4285 39.8673V23.9999C35.4285 23.6717 35.4148 23.3466 35.3877 23.0254C35.3614 22.7156 35.5734 22.433 35.8768 22.3653C38.7825 21.7162 41.1314 19.592 42.0968 16.8196C42.1868 16.5607 42.562 16.5342 42.6608 16.7899C43.5257 19.0267 44 21.4579 44 23.9999C44 30.5999 40.8031 36.453 35.8734 40.0956Z" fill="#FAFAF9"/>
    <path d="M39.7142 13.9999C39.7142 17.1559 37.156 19.7142 33.9999 19.7142C30.8439 19.7142 28.2856 17.1559 28.2856 13.9999C28.2856 10.844 30.8439 8.28568 33.9999 8.28568C37.156 8.28568 39.7142 10.844 39.7142 13.9999Z" fill="#EF4444"/>
    <path d="M5.90315 31.1802C5.81301 31.4391 5.43792 31.4656 5.33906 31.2099C4.47423 28.9732 4 26.542 4 24C4 17.4001 7.19687 11.5468 12.1266 7.90427C12.3123 7.76701 12.5715 7.90155 12.5715 8.13249V24C12.5715 24.3282 12.5853 24.6532 12.6124 24.9745C12.6386 25.2843 12.4266 25.5669 12.1232 25.6346C9.21756 26.2837 6.86849 28.4079 5.90315 31.1802Z" fill="#FAFAF9"/>
    <path d="M32.2436 42.2273C32.4448 42.1362 32.5714 41.9347 32.5714 41.7142V32.3148C32.5714 32.0516 32.2399 31.9236 32.0531 32.1091C29.9873 34.1608 27.1416 35.4285 23.9999 35.4285C23.6716 35.4285 23.3466 35.4148 23.0254 35.3876C22.7156 35.3613 22.433 35.5733 22.3652 35.8768C21.7162 38.7825 19.5919 41.1313 16.8195 42.0967C16.5607 42.187 16.5342 42.5619 16.7898 42.6607C19.0267 43.5256 21.4579 43.9999 23.9999 43.9999C26.939 43.9999 29.7302 43.3659 32.2436 42.2273Z" fill="#FAFAF9"/>
    <path d="M19.7145 33.9999C19.7145 37.1559 17.1561 39.7142 14.0002 39.7142C10.8443 39.7142 8.28589 37.1559 8.28589 33.9999C8.28589 30.8439 10.8443 28.2856 14.0002 28.2856C17.1561 28.2856 19.7145 30.8439 19.7145 33.9999Z" fill="#EF4444"/>
    </svg>
    