<svg xmlns="http://www.w3.org/2000/svg" version="1.1" xmlns:xlink="http://www.w3.org/1999/xlink" width="40" height="40">
    <svg width="40" height="40" viewBox="0 0 40 40" fill="none" xmlns="http://www.w3.org/2000/svg">
        <path d="M11.9468 11.8909C14.0127 9.83911 16.8584 8.57142 20.0001 8.57142C20.3283 8.57142 20.6534 8.58525 20.9746 8.61239C21.2844 8.63854 21.567 8.42659 21.6348 8.12319C22.2838 5.21754 24.4081 2.86848 27.1804 1.90314C27.4393 1.813 27.4658 1.43791 27.2101 1.33906C24.9733 0.474228 22.5421 0 20.0001 0C17.061 0 14.2699 0.634 11.7562 1.77266C11.5553 1.86368 11.4286 2.06523 11.4286 2.28583V11.685C11.4286 11.9482 11.76 12.0764 11.9468 11.8909Z" fill="#F5F5F4"/>
        <path d="M31.8735 36.0957C31.6878 36.2328 31.4286 36.0985 31.4286 35.8674V20C31.4286 19.6717 31.4149 19.3467 31.3877 19.0254C31.3615 18.7157 31.5735 18.4331 31.8769 18.3653C34.7826 17.7163 37.1315 15.592 38.0969 12.8196C38.1869 12.5608 38.5621 12.5343 38.6609 12.7899C39.5258 15.0268 40.0001 17.458 40.0001 20C40.0001 26.6 36.8032 32.4531 31.8735 36.0957Z" fill="#F5F5F4"/>
        <path d="M35.7143 9.99997C35.7143 13.1559 33.156 15.7143 30 15.7143C26.844 15.7143 24.2857 13.1559 24.2857 9.99997C24.2857 6.84406 26.844 4.28569 30 4.28569C33.156 4.28569 35.7143 6.84406 35.7143 9.99997Z" fill="#EF4444"/>
        <path d="M1.90315 27.1803C1.81301 27.4391 1.43792 27.4657 1.33906 27.21C0.474231 24.9733 0 22.542 0 20C0 13.4001 3.19687 7.54687 8.12661 3.9043C8.31233 3.76705 8.57147 3.90159 8.57147 4.13253V20C8.57147 20.3283 8.5853 20.6533 8.61244 20.9746C8.63859 21.2843 8.42664 21.5669 8.12324 21.6347C5.21757 22.2838 2.8685 24.408 1.90315 27.1803Z" fill="#F5F5F4"/>
        <path d="M28.2437 38.2274C28.4448 38.1363 28.5714 37.9349 28.5714 37.7143V28.3149C28.5714 28.0517 28.24 27.9237 28.0531 28.1092C25.9874 30.1609 23.1417 31.4286 19.9999 31.4286C19.6717 31.4286 19.3467 31.4149 19.0254 31.3877C18.7156 31.3614 18.4331 31.5734 18.3653 31.8769C17.7162 34.7826 15.592 37.1314 12.8196 38.0969C12.5607 38.1871 12.5342 38.562 12.7899 38.6609C15.0267 39.5257 17.4579 40 19.9999 40C22.9391 40 25.7303 39.366 28.2437 38.2274Z" fill="#F5F5F4"/>
        <path d="M15.7145 30C15.7145 33.156 13.1561 35.7143 10.0002 35.7143C6.84427 35.7143 4.28589 33.156 4.28589 30C4.28589 26.844 6.84427 24.2857 10.0002 24.2857C13.1561 24.2857 15.7145 26.844 15.7145 30Z" fill="#EF4444"/>
        </svg>
<style>@media (prefers-color-scheme: light) { :root { filter: none; } }
@media (prefers-color-scheme: dark) { :root { filter: invert(100%); } }
</style>
</svg>
