<svg width="136" height="40" viewBox="0 0 136 40" fill="none" xmlns="http://www.w3.org/2000/svg">
    <path d="M11.9468 11.8909C14.0127 9.83911 16.8584 8.57142 20.0001 8.57142C20.3284 8.57142 20.6534 8.58525 20.9747 8.61239C21.2844 8.63854 21.567 8.42659 21.6348 8.12319C22.2839 5.21754 24.4081 2.86848 27.1804 1.90314C27.4393 1.813 27.4659 1.43791 27.2101 1.33906C24.9734 0.474228 22.5421 0 20.0001 0C17.061 0 14.2699 0.634 11.7562 1.77266C11.5553 1.86368 11.4286 2.06523 11.4286 2.28583V11.685C11.4286 11.9482 11.7601 12.0764 11.9468 11.8909Z" fill="#F5F5F4"/>
    <path d="M31.8735 36.0957C31.6878 36.2328 31.4286 36.0985 31.4286 35.8674V20C31.4286 19.6717 31.4149 19.3467 31.3878 19.0254C31.3615 18.7157 31.5735 18.4331 31.8769 18.3653C34.7826 17.7163 37.1315 15.592 38.0969 12.8196C38.1869 12.5608 38.5621 12.5343 38.6609 12.7899C39.5258 15.0268 40.0001 17.458 40.0001 20C40.0001 26.6 36.8032 32.4531 31.8735 36.0957Z" fill="#F5F5F4"/>
    <path d="M35.7143 9.99997C35.7143 13.1559 33.156 15.7143 30 15.7143C26.844 15.7143 24.2857 13.1559 24.2857 9.99997C24.2857 6.84406 26.844 4.28569 30 4.28569C33.156 4.28569 35.7143 6.84406 35.7143 9.99997Z" fill="#EF4444"/>
    <path d="M1.90315 27.1803C1.81301 27.4391 1.43792 27.4657 1.33906 27.21C0.474231 24.9733 0 22.542 0 20C0 13.4001 3.19687 7.54687 8.12661 3.9043C8.31233 3.76705 8.57147 3.90159 8.57147 4.13253V20C8.57147 20.3283 8.5853 20.6533 8.61244 20.9746C8.63859 21.2843 8.42664 21.5669 8.12324 21.6347C5.21757 22.2838 2.8685 24.408 1.90315 27.1803Z" fill="#F5F5F4"/>
    <path d="M28.2437 38.2274C28.4448 38.1363 28.5714 37.9349 28.5714 37.7143V28.3149C28.5714 28.0517 28.24 27.9237 28.0531 28.1092C25.9874 30.1609 23.1417 31.4286 19.9999 31.4286C19.6717 31.4286 19.3467 31.4149 19.0254 31.3877C18.7156 31.3614 18.4331 31.5734 18.3653 31.8769C17.7162 34.7826 15.592 37.1314 12.8196 38.0969C12.5607 38.1871 12.5342 38.562 12.7899 38.6609C15.0267 39.5257 17.4579 40 19.9999 40C22.9391 40 25.7303 39.366 28.2437 38.2274Z" fill="#F5F5F4"/>
    <path d="M15.7145 30C15.7145 33.156 13.1561 35.7143 10.0002 35.7143C6.84427 35.7143 4.28589 33.156 4.28589 30C4.28589 26.844 6.84427 24.2857 10.0002 24.2857C13.1561 24.2857 15.7145 26.844 15.7145 30Z" fill="#EF4444"/>
    <path d="M73.0001 20C73.0001 24.9706 68.9707 29 64.0001 29C59.0295 29 55.0001 24.9706 55.0001 20V9.5C55.0001 8.67157 54.3285 8 53.5001 8C52.6717 8 52.0001 8.67157 52.0001 9.5V20C52.0001 26.6274 57.3727 32 64.0001 32C70.6275 32 76.0001 26.6274 76.0001 20V9.5C76.0001 8.67157 75.3285 8 74.5001 8C73.6717 8 73.0001 8.67157 73.0001 9.5V20Z" fill="#F5F5F4"/>
    <path d="M101 20V30.5C101 31.3284 101.672 32 102.5 32C103.329 32 104 31.3284 104 30.5V20C104 13.3726 98.6275 8 92.0001 8C85.3727 8 80.0001 13.3726 80.0001 20V30.5C80.0001 31.3284 80.6717 32 81.5001 32C82.3285 32 83.0001 31.3284 83.0001 30.5V20C83.0001 15.0294 87.0295 11 92.0001 11C96.9707 11 101 15.0294 101 20Z" fill="#F5F5F4"/>
    <path fill-rule="evenodd" clip-rule="evenodd" d="M129 27.9375V30.5C129 31.3284 129.672 32 130.5 32C131.329 32 132 31.3284 132 30.5V20C132 13.3726 126.628 8 120 8C113.373 8 108 13.3726 108 20C108 26.6274 113.373 32 120 32C123.584 32 126.801 30.4287 129 27.9375ZM129 20C129 24.9706 124.971 29 120 29C115.03 29 111 24.9706 111 20C111 15.0294 115.03 11 120 11C124.971 11 129 15.0294 129 20Z" fill="#F5F5F4"/>
    </svg>
    