<svg width="144" height="48" viewBox="0 0 144 48" fill="none" xmlns="http://www.w3.org/2000/svg">
    <g clip-path="url(#clip0_14_140)">
    <path d="M15.9468 15.8909C18.0127 13.8391 20.8584 12.5714 24.0001 12.5714C24.3283 12.5714 24.6534 12.5853 24.9746 12.6124C25.2844 12.6385 25.567 12.4266 25.6348 12.1232C26.2838 9.21754 28.4081 6.86848 31.1804 5.90314C31.4393 5.813 31.4658 5.43791 31.2101 5.33906C28.9733 4.47423 26.5421 4 24.0001 4C21.061 4 18.2699 4.634 15.7562 5.77266C15.5553 5.86368 15.4286 6.06523 15.4286 6.28583V15.685C15.4286 15.9482 15.76 16.0764 15.9468 15.8909Z" fill="#478293"/>
    <path d="M35.8735 40.0957C35.6878 40.2328 35.4286 40.0985 35.4286 39.8674V24C35.4286 23.6717 35.4149 23.3467 35.3877 23.0254C35.3615 22.7157 35.5735 22.4331 35.8769 22.3653C38.7826 21.7163 41.1315 19.592 42.0969 16.8196C42.1869 16.5608 42.5621 16.5343 42.6609 16.7899C43.5258 19.0268 44.0001 21.458 44.0001 24C44.0001 30.6 40.8032 36.4531 35.8735 40.0957Z" fill="#478293"/>
    <path d="M39.7143 14C39.7143 17.1559 37.156 19.7143 34 19.7143C30.844 19.7143 28.2857 17.1559 28.2857 14C28.2857 10.8441 30.844 8.28569 34 8.28569C37.156 8.28569 39.7143 10.8441 39.7143 14Z" fill="#F97016"/>
    <path d="M5.90315 31.1803C5.81301 31.4391 5.43792 31.4657 5.33906 31.21C4.47423 28.9733 4 26.542 4 24C4 17.4001 7.19687 11.5469 12.1266 7.9043C12.3123 7.76705 12.5715 7.90159 12.5715 8.13253V24C12.5715 24.3283 12.5853 24.6533 12.6124 24.9746C12.6386 25.2843 12.4266 25.5669 12.1232 25.6347C9.21757 26.2838 6.8685 28.408 5.90315 31.1803Z" fill="#478293"/>
    <path d="M32.2437 42.2274C32.4448 42.1363 32.5714 41.9349 32.5714 41.7143V32.3149C32.5714 32.0517 32.24 31.9237 32.0531 32.1092C29.9874 34.1609 27.1417 35.4286 23.9999 35.4286C23.6717 35.4286 23.3467 35.4149 23.0254 35.3877C22.7156 35.3614 22.4331 35.5734 22.3653 35.8769C21.7162 38.7826 19.592 41.1314 16.8196 42.0969C16.5607 42.1871 16.5342 42.562 16.7899 42.6609C19.0267 43.5257 21.4579 44 23.9999 44C26.9391 44 29.7303 43.366 32.2437 42.2274Z" fill="#478293"/>
    <path d="M19.7145 34C19.7145 37.156 17.1561 39.7143 14.0002 39.7143C10.8443 39.7143 8.28589 37.156 8.28589 34C8.28589 30.844 10.8443 28.2857 14.0002 28.2857C17.1561 28.2857 19.7145 30.844 19.7145 34Z" fill="#F97016"/>
    <path d="M81 24C81 28.9706 76.9706 33 72 33C67.0294 33 63 28.9706 63 24V13.5C63 12.6716 62.3284 12 61.5 12C60.6716 12 60 12.6716 60 13.5V24C60 30.6274 65.3726 36 72 36C78.6274 36 84 30.6274 84 24V13.5C84 12.6716 83.3284 12 82.5 12C81.6716 12 81 12.6716 81 13.5V24Z" fill="#478293"/>
    <path d="M109 24V34.5C109 35.3284 109.672 36 110.5 36C111.328 36 112 35.3284 112 34.5V24C112 17.3726 106.627 12 100 12C93.3726 12 88 17.3726 88 24V34.5C88 35.3284 88.6716 36 89.5 36C90.3284 36 91 35.3284 91 34.5V24C91 19.0294 95.0294 15 100 15C104.971 15 109 19.0294 109 24Z" fill="#478293"/>
    <path fill-rule="evenodd" clip-rule="evenodd" d="M137 31.9375V34.5C137 35.3284 137.672 36 138.5 36V36C139.328 36 140 35.3284 140 34.5V24C140 17.3726 134.627 12 128 12C121.373 12 116 17.3726 116 24C116 30.6274 121.373 36 128 36C131.584 36 134.801 34.4287 137 31.9375ZM137 24C137 28.9706 132.971 33 128 33C123.029 33 119 28.9706 119 24C119 19.0294 123.029 15 128 15C132.971 15 137 19.0294 137 24Z" fill="#478293"/>
    </g>
    <defs>
    <clipPath id="clip0_14_140">
    <rect width="144" height="48" fill="white"/>
    </clipPath>
    </defs>
    </svg>
    