<svg id="eoDRfmh0U2I1" xmlns="http://www.w3.org/2000/svg" xmlns:xlink="http://www.w3.org/1999/xlink" viewBox="0 0 1280 720" shape-rendering="geometricPrecision" text-rendering="geometricPrecision"><g opacity="0.5"><g><line x1="-635" y1="0" x2="637" y2="0" transform="translate(639 80)" fill="none" stroke="#111827" stroke-width="3" stroke-linecap="round" stroke-dashoffset="160" stroke-dasharray="8,8"/><line x1="-635" y1="0" x2="637" y2="0" transform="translate(639 160)" fill="none" stroke="#111827" stroke-width="3" stroke-linecap="round" stroke-dashoffset="160" stroke-dasharray="8,8"/><line x1="-635" y1="0" x2="637" y2="0" transform="translate(639 240)" fill="none" stroke="#111827" stroke-width="3" stroke-linecap="round" stroke-dashoffset="160" stroke-dasharray="8,8"/><line x1="-635" y1="0" x2="637" y2="0" transform="translate(639 320)" fill="none" stroke="#111827" stroke-width="3" stroke-linecap="round" stroke-dashoffset="160" stroke-dasharray="8,8"/><line x1="-635" y1="0" x2="637" y2="0" transform="translate(639 400)" fill="none" stroke="#111827" stroke-width="3" stroke-linecap="round" stroke-dashoffset="160" stroke-dasharray="8,8"/><line x1="-635" y1="0" x2="637" y2="0" transform="translate(639 480)" fill="none" stroke="#111827" stroke-width="3" stroke-linecap="round" stroke-dashoffset="160" stroke-dasharray="8,8"/><line x1="-635" y1="0" x2="637" y2="0" transform="translate(639 560)" fill="none" stroke="#111827" stroke-width="3" stroke-linecap="round" stroke-dashoffset="81.066667" stroke-dasharray="8,8"/><line x1="-635" y1="0" x2="637" y2="0" transform="translate(639 640)" fill="none" stroke="#111827" stroke-width="3" stroke-linecap="round" stroke-dashoffset="160" stroke-dasharray="8,8"/></g><g><line x1="0" y1="-335" x2="0" y2="375" transform="translate(80 340)" fill="none" stroke="#111827" stroke-width="3" stroke-linecap="round" stroke-dasharray="10,10"/><line x1="0" y1="-335" x2="0" y2="375" transform="translate(160 340)" fill="none" stroke="#111827" stroke-width="3" stroke-linecap="round" stroke-dasharray="10,10"/><line x1="0" y1="-335" x2="0" y2="375" transform="translate(240 340)" fill="none" stroke="#111827" stroke-width="3" stroke-linecap="round" stroke-dasharray="10,10"/><line x1="0" y1="-335" x2="0" y2="375" transform="translate(320 340)" fill="none" stroke="#111827" stroke-width="3" stroke-linecap="round" stroke-dasharray="10,10"/><line x1="0" y1="-335" x2="0" y2="375" transform="translate(400 340)" fill="none" stroke="#111827" stroke-width="3" stroke-linecap="round" stroke-dasharray="10,10"/><line x1="0" y1="-335" x2="0" y2="375" transform="translate(480 340)" fill="none" stroke="#111827" stroke-width="3" stroke-linecap="round" stroke-dasharray="10,10"/><line x1="0" y1="-335" x2="0" y2="375" transform="translate(560 340)" fill="none" stroke="#111827" stroke-width="3" stroke-linecap="round" stroke-dasharray="10,10"/><line x1="0" y1="-335" x2="0" y2="375" transform="translate(640 340)" fill="none" stroke="#111827" stroke-width="3" stroke-linecap="round" stroke-dasharray="10,10"/><line x1="0" y1="-335" x2="0" y2="375" transform="translate(720 340)" fill="none" stroke="#111827" stroke-width="3" stroke-linecap="round" stroke-dasharray="10,10"/><line x1="0" y1="-335" x2="0" y2="375" transform="translate(800 340)" fill="none" stroke="#111827" stroke-width="3" stroke-linecap="round" stroke-dasharray="10,10"/><line x1="0" y1="-335" x2="0" y2="375" transform="translate(880 340)" fill="none" stroke="#111827" stroke-width="3" stroke-linecap="round" stroke-dasharray="10,10"/><line x1="0" y1="-335" x2="0" y2="375" transform="translate(960 340)" fill="none" stroke="#111827" stroke-width="3" stroke-linecap="round" stroke-dasharray="10,10"/><line x1="0" y1="-335" x2="0" y2="375" transform="translate(1040 340)" fill="none" stroke="#111827" stroke-width="3" stroke-linecap="round" stroke-dasharray="10,10"/><line x1="0" y1="-335" x2="0" y2="375" transform="translate(1120 340)" fill="none" stroke="#111827" stroke-width="3" stroke-linecap="round" stroke-dasharray="10,10"/><line x1="0" y1="-335" x2="0" y2="375" transform="translate(1200 340)" fill="none" stroke="#111827" stroke-width="3" stroke-linecap="round" stroke-dasharray="10,10"/></g></g><path id="eoDRfmh0U2I28" d="M0,32C0,14.326888,14.326888,0,32,0h896c17.673112,0,32,14.326888,32,32v496c0,17.673112-14.326888,32-32,32h-896c-17.673112,0-32-14.326888-32-32L0,32Z" transform="translate(160 80)" fill="#111827" stroke="#1f2937" stroke-width="3"/><line id="eoDRfmh0U2I29" x1="-480" y1="0" x2="480" y2="0" transform="translate(640 160)" fill="none" stroke="#1f2937" stroke-width="3"/><g id="eoDRfmh0U2I30" transform="translate(842 0)"><g id="eoDRfmh0U2I31"><ellipse rx="20" ry="20" transform="translate(238 120)" fill="#1f2937" stroke-width="0"/></g><g id="eoDRfmh0U2I33"><ellipse rx="20" ry="20" transform="translate(178 120)" fill="#1f2937" stroke-width="0"/></g><g id="eoDRfmh0U2I35"><ellipse rx="20" ry="20" transform="translate(118 120)" fill="#1f2937" stroke-width="0"/></g><g id="eoDRfmh0U2I37" transform="translate(-60 0)"><ellipse rx="20" ry="20" transform="translate(118 120)" fill="#1f2937" stroke-width="0"/></g></g><g id="eoDRfmh0U2I39" transform="translate(82 0)"><path id="eoDRfmh0U2I40" d="M0,20C0,8.954305,8.954305,0,20,0h80c11.045695,0,20,8.954305,20,20s-8.954305,20-20,20h-80C8.954305,40,0,31.045695,0,20Z" transform="translate(98 100)" fill="#ef4444" fill-opacity="0.5" stroke-width="0"/></g><g id="eoDRfmh0U2I41" transform="translate(222 0)"><path id="eoDRfmh0U2I42" d="M0,20C0,8.954305,8.954305,0,20,0h80c11.045695,0,20,8.954305,20,20s-8.954305,20-20,20h-80C8.954305,40,0,31.045695,0,20Z" transform="translate(98 100)" fill="#1f2937" stroke-width="0"/></g><g id="eoDRfmh0U2I43" transform="translate(402 0)" opacity="0"><path d="M0,20C0,8.954305,8.954305,0,20,0v0C31.045695,0,40,8.954305,40,20s-8.954305,20-20,20v0C8.954305,40,0,31.045695,0,20Z" transform="translate(98 100)" fill="#1f2937" stroke-width="0"/></g><g id="eoDRfmh0U2I45" transform="translate(402 480)" opacity="0"><path d="M0,20C0,8.954305,8.954305,0,20,0v0C31.045695,0,40,8.954305,40,20s-8.954305,20-20,20v0C8.954305,40,0,31.045695,0,20Z" transform="translate(98 100)" fill="#1f2937" stroke-width="0"/></g><line id="eoDRfmh0U2I47" x1="-480" y1="0" x2="480" y2="0" transform="translate(640 560)" opacity="0" fill="none" stroke="#1f2937" stroke-width="3"/><g id="eoDRfmh0U2I48"><path d="M0,16C0,7.163444,7.163444,0,16,0h188c8.836556,0,16,7.163444,16,16v288c0,8.836556-7.163444,16-16,16h-188c-8.836556,0-16-7.163444-16-16L0,16Z" transform="translate(180 179.999947)" fill="#1f2937" stroke-width="0"/></g><g id="eoDRfmh0U2I50" transform="translate(.000001 0)"><path d="M20,16C20,7.163444,27.163444,0,36,0h228c8.836556,0,16,7.163444,16,16v88c0,8.836556-7.163444,16-16,16h-228c-8.836556,0-16-7.163444-16-16v-88Z" transform="translate(820 179.999947)" fill="#1f2937" stroke-width="0"/><path d="M20,16C20,7.163444,27.163444,0,36,0h228c8.836556,0,16,7.163444,16,16v88c0,8.836556-7.163444,16-16,16h-228c-8.836556,0-16-7.163444-16-16v-88Z" transform="translate(820 319.999947)" fill="#1f2937" stroke-width="0"/><path d="M20,16C20,7.163444,27.163444,0,36,0h228c8.836556,0,16,7.163444,16,16v88c0,8.836556-7.163444,16-16,16h-228c-8.836556,0-16-7.163444-16-16v-88Z" transform="translate(820 459.999947)" fill="#1f2937" stroke-width="0"/></g><g transform="translate(.000001 0)"><g clip-path="url(#eoDRfmh0U2I60)"><g id="eoDRfmh0U2I56"><path id="eoDRfmh0U2I57" d="M0,16C0,7.163444,7.163444,0,16,0h368c8.836556,0,16,7.163444,16,16v28c0,8.836556-7.163444,16-16,16h-368C7.163444,60,0,52.836556,0,44v-28Z" transform="translate(420 179.999947)" fill="#1f2937" stroke-width="0"/><path id="eoDRfmh0U2I58" d="M0,16C0,7.163444,7.163444,0,16,0h368c8.836556,0,16,7.163444,16,16v138c0,8.836556-7.163444,16-16,16h-368c-8.836556,0-16-7.163444-16-16L0,16Z" transform="translate(420 259.999947)" fill="#1f2937" stroke-width="0"/><path id="eoDRfmh0U2I59" d="M0,16C0,7.163444,7.163444,0,16,0h368c8.836556,0,16,7.163444,16,16v138c0,8.836556-7.163444,16-16,16h-368c-8.836556,0-16-7.163444-16-16L0,16Z" transform="translate(420 450)" fill="#1f2937" stroke-width="0"/></g><clipPath id="eoDRfmh0U2I60" transform="matrix(.991682 0 0 1 3.3272-.00008)"><rect width="444.306145" height="480" rx="0" ry="0" transform="translate(400.000001 160)" fill="#d2dbed" stroke-width="0"/></clipPath></g></g>
<script><![CDATA[
(function(s,i,u,o,c,w,d,t,n,x,e,p,a,b){(a=Array.from(d.querySelectorAll('svg#' + i.root)).filter(n=> !n.svgatorPlayer)[0]||{}).svgatorPlayer={ready:(function(a){b=[];return function(c){return c?(b.push(c),a.svgatorPlayer):b}})(a)};w[o]=w[o]||{};w[o][s]=w[o][s]||[];w[o][s].push(i);e=d.createElementNS(n,t);e.async=true;e.setAttributeNS(x,'href',[u,s,'.','j','s','?','v','=',c].join(''));e.setAttributeNS(null,'src',[u,s,'.','j','s','?','v','=',c].join(''));p=d.getElementsByTagName(t)[0];p.parentNode.insertBefore(e,p);})('91c80d77',{"root":"eoDRfmh0U2I1","version":"2022-05-04","animations":[{"elements":{"eoDRfmh0U2I28":{"d":[{"t":1000,"v":["M",0,32,"C",0,14.326888,14.326888,0,32,0,"L",928,0,"C",945.673112,0,960,14.326888,960,32,"L",960,528,"C",960,545.673112,945.673112,560,928,560,"L",32,560,"C",14.326888,560,0,545.673112,0,528,"L",0,32,"Z"]},{"t":2000,"v":["M",320,32,"C",320,14.326888,334.326888,0,352,0,"L",608,0,"C",625.673112,0,640,14.326888,640,32,"L",640,528,"C",640,545.673112,625.673112,560,608,560,"L",352,560,"C",334.326888,560,320,545.673112,320,528,"L",320,32,"Z"]},{"t":5000,"v":["M",320,32,"C",320,14.326888,334.326888,0,352,0,"L",608,0,"C",625.673112,0,640,14.326888,640,32,"L",640,528,"C",640,545.673112,625.673112,560,608,560,"L",352,560,"C",334.326888,560,320,545.673112,320,528,"L",320,32,"Z"]},{"t":6000,"v":["M",0,32,"C",0,14.326888,14.326888,0,32,0,"L",928,0,"C",945.673112,0,960,14.326888,960,32,"L",960,528,"C",960,545.673112,945.673112,560,928,560,"L",32,560,"C",14.326888,560,0,545.673112,0,528,"L",0,32,"Z"]}]},"eoDRfmh0U2I29":{"#line":[{"t":1000,"v":[-480,0,480,0]},{"t":2000,"v":[-160,0,160,0]},{"t":5000,"v":[-160,0,160,0]},{"t":6000,"v":[-480,0,480,0]}]},"eoDRfmh0U2I30":{"transform":{"data":{"t":{"x":-184,"y":-120}},"keys":{"o":[{"t":1000,"v":{"x":1026,"y":120,"type":"corner"}},{"t":2000,"v":{"x":706,"y":120,"type":"corner"}},{"t":5000,"v":{"x":706,"y":120,"type":"corner"}},{"t":6000,"v":{"x":1026,"y":120,"type":"corner"}}]}}},"eoDRfmh0U2I31":{"transform":{"data":{"t":{"x":-238,"y":-120}},"keys":{"o":[{"t":1300,"v":{"x":238,"y":120,"type":"corner"},"e":[1,0,0,1]},{"t":2000,"v":{"x":238,"y":600,"type":"corner"}},{"t":4200,"v":{"x":238,"y":600,"type":"corner"},"e":[1,0,0,1]},{"t":4800,"v":{"x":238,"y":120,"type":"corner"}}]}}},"eoDRfmh0U2I33":{"transform":{"data":{"t":{"x":-178,"y":-120}},"keys":{"o":[{"t":1100,"v":{"x":178,"y":120,"type":"corner"},"e":[1,0,0,1]},{"t":1800,"v":{"x":178,"y":600,"type":"corner"}},{"t":4300,"v":{"x":178,"y":600,"type":"corner"},"e":[1,0,0,1]},{"t":4900,"v":{"x":178,"y":120,"type":"corner"}}]}}},"eoDRfmh0U2I35":{"transform":{"data":{"t":{"x":-118,"y":-120}},"keys":{"o":[{"t":1000,"v":{"x":118,"y":120,"type":"corner"},"e":[1,0,0,1]},{"t":1600,"v":{"x":118,"y":600,"type":"corner"}},{"t":4400,"v":{"x":118,"y":600,"type":"corner"},"e":[1,0,0,1]},{"t":5000,"v":{"x":118,"y":120,"type":"corner"}}]}}},"eoDRfmh0U2I37":{"transform":{"data":{"t":{"x":-118,"y":-120}},"keys":{"o":[{"t":1000,"v":{"x":58,"y":120,"type":"corner"},"e":[0.42,0,1,1]},{"t":2000,"v":{"x":238,"y":120,"type":"corner"}},{"t":4400,"v":{"x":238,"y":120,"type":"corner"}},{"t":5000,"v":{"x":58,"y":120,"type":"corner"}}]}}},"eoDRfmh0U2I39":{"transform":{"data":{"t":{"x":-118,"y":-120}},"keys":{"o":[{"t":1000,"v":{"x":200,"y":120,"type":"corner"}},{"t":2000,"v":{"x":580,"y":120,"type":"corner"}},{"t":4200,"v":{"x":580,"y":120,"type":"corner"}},{"t":5000,"v":{"x":520,"y":120,"type":"corner"}},{"t":6000,"v":{"x":200,"y":120,"type":"corner"}}]}}},"eoDRfmh0U2I40":{"d":[{"t":1000,"v":["M",0,20,"C",0,8.954305,8.954305,0,20,0,"L",100,0,"C",111.045695,0,120,8.954305,120,20,"C",120,31.045695,111.045695,40,100,40,"L",20,40,"C",8.954305,40,0,31.045695,0,20,"Z"],"e":[0.42,0,1,1]},{"t":2000,"v":["M",0,20,"C",0,8.954305,8.954305,0,20,0,"L",20,0,"C",31.045695,0,40,8.954305,40,20,"C",40,31.045695,31.045695,40,20,40,"L",20,40,"C",8.954305,40,0,31.045695,0,20,"Z"]},{"t":4700,"v":["M",0,20,"C",0,8.954305,8.954305,0,20,0,"L",20,0,"C",31.045695,0,40,8.954305,40,20,"C",40,31.045695,31.045695,40,20,40,"L",20,40,"C",8.954305,40,0,31.045695,0,20,"Z"],"e":[0.42,0,0.58,1]},{"t":6000,"v":["M",0,20,"C",0,8.954305,8.954305,0,20,0,"L",100,0,"C",111.045695,0,120,8.954305,120,20,"C",120,31.045695,111.045695,40,100,40,"L",20,40,"C",8.954305,40,0,31.045695,0,20,"Z"]}]},"eoDRfmh0U2I41":{"transform":{"data":{"t":{"x":-118,"y":-120}},"keys":{"o":[{"t":1000,"v":{"x":340,"y":120,"type":"cusp","end":{"x":317.649706,"y":282.911037}}},{"t":2000,"v":{"x":580,"y":600,"type":"cusp","start":{"x":466.236437,"y":495.912457}}},{"t":4200,"v":{"x":578,"y":598,"type":"cusp","end":{"x":624.163927,"y":475.32291}}},{"t":5400,"v":{"x":580,"y":120,"type":"cusp","start":{"x":626.838224,"y":236.2671}}},{"t":6000,"v":{"x":340,"y":120,"type":"corner"}}]}}},"eoDRfmh0U2I42":{"d":[{"t":1000,"v":["M",0,20,"C",0,8.954305,8.954305,0,20,0,"L",100,0,"C",111.045695,0,120,8.954305,120,20,"C",120,31.045695,111.045695,40,100,40,"L",20,40,"C",8.954305,40,0,31.045695,0,20,"Z"],"e":[0.42,0,1,1]},{"t":1800,"v":["M",0,20,"C",0,8.954305,8.954305,0,20,0,"L",20,0,"C",31.045695,0,40,8.954305,40,20,"C",40,31.045695,31.045695,40,20,40,"L",20,40,"C",8.954305,40,0,31.045695,0,20,"Z"]},{"t":4700,"v":["M",0,20,"C",0,8.954305,8.954305,0,20,0,"L",20,0,"C",31.045695,0,40,8.954305,40,20,"C",40,31.045695,31.045695,40,20,40,"L",20,40,"C",8.954305,40,0,31.045695,0,20,"Z"],"e":[0,0,0.58,1]},{"t":6000,"v":["M",0,20,"C",0,8.954305,8.954305,0,20,0,"L",100,0,"C",111.045695,0,120,8.954305,120,20,"C",120,31.045695,111.045695,40,100,40,"L",20,40,"C",8.954305,40,0,31.045695,0,20,"Z"]}]},"eoDRfmh0U2I43":{"opacity":[{"t":0,"v":0},{"t":2000,"v":0},{"t":2500,"v":1},{"t":4200,"v":1},{"t":4700,"v":0}]},"eoDRfmh0U2I45":{"opacity":[{"t":0,"v":0},{"t":2000,"v":0},{"t":2500,"v":1},{"t":4200,"v":1},{"t":4700,"v":0}]},"eoDRfmh0U2I47":{"#line":[{"t":1000,"v":[-480,0,480,0]},{"t":2000,"v":[-160,0,160,0]},{"t":5000,"v":[-160,0,160,0]},{"t":6000,"v":[-480,0,480,0]}],"opacity":[{"t":1000,"v":0},{"t":3000,"v":1},{"t":4000,"v":1},{"t":5000,"v":0}]},"eoDRfmh0U2I48":{"opacity":[{"t":500,"v":1},{"t":1000,"v":0},{"t":6000,"v":0},{"t":6500,"v":1}]},"eoDRfmh0U2I50":{"opacity":[{"t":500,"v":1},{"t":1000,"v":0},{"t":6000,"v":0},{"t":6500,"v":1}]},"eoDRfmh0U2I56":{"transform":{"data":{"t":{"x":-620,"y":-449.999969}},"keys":{"o":[{"t":500,"v":{"x":620,"y":449.999969,"type":"corner"}},{"t":1000,"v":{"x":620,"y":909.999969,"type":"corner"}},{"t":2500,"v":{"x":620,"y":909.999969,"type":"corner"}},{"t":3000,"v":{"x":620,"y":449.999969,"type":"corner"}},{"t":4200,"v":{"x":620,"y":449.999969,"type":"corner"}},{"t":4700,"v":{"x":620,"y":909.999969,"type":"corner"}},{"t":6000,"v":{"x":620,"y":909.999969,"type":"corner"}},{"t":6500,"v":{"x":620,"y":449.999969,"type":"corner"}}]}}},"eoDRfmh0U2I57":{"d":[{"t":2000,"v":["M",0,16,"C",0,7.163444,7.163444,0,16,0,"L",384,0,"C",392.836556,0,400,7.163444,400,16,"L",400,44,"C",400,52.836556,392.836556,60,384,60,"L",16,60,"C",7.163444,60,0,52.836556,0,44,"L",0,16,"Z"]},{"t":2500,"v":["M",80,16,"C",80,7.163444,87.163444,0,96,0,"L",344,0,"C",352.836556,0,360,7.163444,360,16,"L",360,44,"C",360,52.836556,352.836556,60,344,60,"L",96,60,"C",87.163444,60,80,52.836556,80,44,"L",80,16,"Z"]},{"t":4700,"v":["M",80,16,"C",80,7.163444,87.163444,0,96,0,"L",344,0,"C",352.836556,0,360,7.163444,360,16,"L",360,44,"C",360,52.836556,352.836556,60,344,60,"L",96,60,"C",87.163444,60,80,52.836556,80,44,"L",80,16,"Z"]},{"t":6000,"v":["M",0,16,"C",0,7.163444,7.163444,0,16,0,"L",384,0,"C",392.836556,0,400,7.163444,400,16,"L",400,44,"C",400,52.836556,392.836556,60,384,60,"L",16,60,"C",7.163444,60,0,52.836556,0,44,"L",0,16,"Z"]}]},"eoDRfmh0U2I58":{"d":[{"t":2000,"v":["M",0,16,"C",0,7.163444,7.163444,0,16,0,"L",384,0,"C",392.836556,0,400,7.163444,400,16,"L",400,154,"C",400,162.836556,392.836556,170,384,170,"L",16,170,"C",7.163444,170,0,162.836556,0,154,"L",0,16,"Z"]},{"t":2500,"v":["M",80,6,"C",80,-2.836556,87.163444,-10,96,-10,"L",344,-10,"C",352.836556,-10,360,-2.836556,360,6,"L",360,114,"C",360,122.836556,352.836556,130,344,130,"L",96,130,"C",87.163444,130,80,122.836556,80,114,"L",80,6,"Z"]},{"t":4700,"v":["M",80,6,"C",80,-2.836556,87.163444,-10,96,-10,"L",344,-10,"C",352.836556,-10,360,-2.836556,360,6,"L",360,114,"C",360,122.836556,352.836556,130,344,130,"L",96,130,"C",87.163444,130,80,122.836556,80,114,"L",80,6,"Z"]},{"t":6000,"v":["M",0,16,"C",0,7.163444,7.163444,0,16,0,"L",384,0,"C",392.836556,0,400,7.163444,400,16,"L",400,154,"C",400,162.836556,392.836556,170,384,170,"L",16,170,"C",7.163444,170,0,162.836556,0,154,"L",0,16,"Z"]}]},"eoDRfmh0U2I59":{"d":[{"t":2000,"v":["M",0,16,"C",0,7.163444,7.163444,0,16,0,"L",384,0,"C",392.836556,0,400,7.163444,400,16,"L",400,154,"C",400,162.836556,392.836556,170,384,170,"L",16,170,"C",7.163444,170,0,162.836556,0,154,"L",0,16,"Z"]},{"t":2500,"v":["M",80,-34,"C",80,-42.836556,87.163444,-50,96,-50,"L",344,-50,"C",352.836556,-50,360,-42.836556,360,-34,"L",360,74,"C",360,82.836556,352.836556,90,344,90,"L",96,90,"C",87.163444,90,80,82.836556,80,74,"L",80,-34,"Z"]},{"t":4700,"v":["M",80,-34,"C",80,-42.836556,87.163444,-50,96,-50,"L",344,-50,"C",352.836556,-50,360,-42.836556,360,-34,"L",360,74,"C",360,82.836556,352.836556,90,344,90,"L",96,90,"C",87.163444,90,80,82.836556,80,74,"L",80,-34,"Z"]},{"t":6000,"v":["M",0,16,"C",0,7.163444,7.163444,0,16,0,"L",384,0,"C",392.836556,0,400,7.163444,400,16,"L",400,154,"C",400,162.836556,392.836556,170,384,170,"L",16,170,"C",7.163444,170,0,162.836556,0,154,"L",0,16,"Z"]}]},"eoDRfmh0U2I60":{"transform":{"data":{"o":{"x":399.999997,"y":159.999917,"type":"corner"},"t":{"x":-399.999997,"y":-159.999997}},"keys":{"s":[{"t":2000,"v":{"x":0.991682,"y":1}},{"t":2500,"v":{"x":0.991682,"y":0.833334}},{"t":4700,"v":{"x":0.991682,"y":0.833334}},{"t":6000,"v":{"x":0.991682,"y":1}}]}}}},"s":"MDDA1ZDhhMzFSNFzM4NDgxNzA4PMzc4N2U3ZDMGxNDk0N04zZkTozZjNmM2IzMOTczNzg4MTc0ENzI4Mzc4N2UR3ZDMxNDkzYzWQwM2IzMTc4OFDM3NDgxNzA4EMzc4N2U3ZDgVyMzE0OTNmSzNNiMzE3NTc4SUDdiUjdiVTMxENDk0MDNiMzED3ME03YjgzNzUQ4MTdkNzA4MWzc0MzE0OTgzJODE4NDc0M2IMzMTgyN2Y3NDEc0NzMzMTQ5NDDAzYjMxNzU3YZlM4MjMxRTQV5NDAzZjNmOGVNW"}],"options":"MDYAxMDgyMjk3YLTdiVzY4NzlHFN2IyOTQxMjkJ3Mzc2Njg2YjKI5ODQ/"},'https://cdn.svgator.com/ply/','__SVGATOR_PLAYER__','2022-05-04',window,document,'script','http://www.w3.org/2000/svg','http://www.w3.org/1999/xlink')
]]></script>
</svg>
