<svg id="e1s09Auoj2J1" xmlns="http://www.w3.org/2000/svg" xmlns:xlink="http://www.w3.org/1999/xlink" viewBox="0 0 1280 720" shape-rendering="geometricPrecision" text-rendering="geometricPrecision">
<style><![CDATA[
#e1s09Auoj2J53_ts {animation: e1s09Auoj2J53_ts__ts 10000ms linear infinite alternate-reverse forwards}@keyframes e1s09Auoj2J53_ts__ts { 0% {transform: translate(640px,360px) scale(1.083333,1.142857)} 12.5% {transform: translate(640px,360px) scale(1.083333,1.142857);animation-timing-function: cubic-bezier(0.42,0,0.58,1)} 25% {transform: translate(640px,360px) scale(0.333333,1);animation-timing-function: cubic-bezier(0.42,0,0.58,1)} 58.75% {transform: translate(640px,360px) scale(0.333333,1);animation-timing-function: cubic-bezier(0.42,0,0.58,1)} 75% {transform: translate(640px,360px) scale(1.083333,1.142857)} 86.875% {transform: translate(640px,360px) scale(1.083334,1.142861)} 100% {transform: translate(640px,360px) scale(1.083334,1.142861)}} #e1s09Auoj2J55_to {animation: e1s09Auoj2J55_to__to 10000ms linear infinite alternate-reverse forwards}@keyframes e1s09Auoj2J55_to__to { 0% {transform: translate(639.999985px,840.000107px)} 28.75% {transform: translate(639.999985px,840.000107px)} 37.5% {transform: translate(639.999985px,360.000107px)} 50% {transform: translate(639.999985px,360.000107px)} 58.75% {transform: translate(639.999985px,840.000107px)} 100% {transform: translate(639.999985px,840.000107px)}} #e1s09Auoj2J55 {animation: e1s09Auoj2J55_c_o 10000ms linear infinite alternate-reverse forwards}@keyframes e1s09Auoj2J55_c_o { 0% {opacity: 0} 28.75% {opacity: 0} 37.5% {opacity: 1} 50% {opacity: 1} 58.75% {opacity: 0} 100% {opacity: 0}} #e1s09Auoj2J62 {animation: e1s09Auoj2J62_c_o 10000ms linear infinite alternate-reverse forwards}@keyframes e1s09Auoj2J62_c_o { 0% {opacity: 0} 12.5% {opacity: 0} 25% {opacity: 0.2} 25.125% {opacity: 0} 31.25% {opacity: 0.2} 50% {opacity: 0.2} 62.5% {opacity: 0} 100% {opacity: 0}} #e1s09Auoj2J63_to {animation: e1s09Auoj2J63_to__to 10000ms linear infinite alternate-reverse forwards}@keyframes e1s09Auoj2J63_to__to { 0% {transform: translate(640px,120px)} 12.5% {transform: translate(640px,120px);animation-timing-function: cubic-bezier(0.42,0,0.58,1)} 25% {transform: translate(640px,160px)} 58.75% {transform: translate(640px,160px);animation-timing-function: cubic-bezier(0.42,0,1,1)} 75% {transform: translate(640px,120px)} 100% {transform: translate(640px,120px)}} #e1s09Auoj2J63_ts {animation: e1s09Auoj2J63_ts__ts 10000ms linear infinite alternate-reverse forwards}@keyframes e1s09Auoj2J63_ts__ts { 0% {transform: scale(1,1)} 12.5% {transform: scale(1,1);animation-timing-function: cubic-bezier(0.42,0,0.58,1)} 25% {transform: scale(0.307692,1)} 58.75% {transform: scale(0.307692,1);animation-timing-function: cubic-bezier(0.42,0,0.58,1)} 75% {transform: scale(1,1)} 100% {transform: scale(1,1)}} #e1s09Auoj2J64_to {animation: e1s09Auoj2J64_to__to 10000ms linear infinite alternate-reverse forwards}@keyframes e1s09Auoj2J64_to__to { 0% {transform: translate(1046px,80px)} 12.5% {transform: translate(1046px,80px);animation-timing-function: cubic-bezier(0.42,0,0.58,1)} 25% {transform: translate(706px,120px)} 62.5% {transform: translate(706px,120px);animation-timing-function: cubic-bezier(0.42,0,0.58,1)} 75% {transform: translate(1046px,80px)} 100% {transform: translate(1046px,80px)}} #e1s09Auoj2J65_to {animation: e1s09Auoj2J65_to__to 10000ms linear infinite alternate-reverse forwards}@keyframes e1s09Auoj2J65_to__to { 0% {transform: translate(238px,120px)} 16.25% {transform: translate(238px,120px);animation-timing-function: cubic-bezier(1,0,0,1)} 25% {transform: translate(238px,600px)} 52.5% {transform: translate(238px,600px);animation-timing-function: cubic-bezier(1,0,0,1)} 60% {transform: translate(238px,120px)} 100% {transform: translate(238px,120px)}} #e1s09Auoj2J68_to {animation: e1s09Auoj2J68_to__to 10000ms linear infinite alternate-reverse forwards}@keyframes e1s09Auoj2J68_to__to { 0% {transform: translate(178px,120px)} 13.75% {transform: translate(178px,120px);animation-timing-function: cubic-bezier(1,0,0,1)} 22.5% {transform: translate(178px,600px)} 53.75% {transform: translate(178px,600px);animation-timing-function: cubic-bezier(1,0,0,1)} 61.25% {transform: translate(178px,120px)} 100% {transform: translate(178px,120px)}} #e1s09Auoj2J71_to {animation: e1s09Auoj2J71_to__to 10000ms linear infinite alternate-reverse forwards}@keyframes e1s09Auoj2J71_to__to { 0% {transform: translate(118px,120px)} 12.5% {transform: translate(118px,120px);animation-timing-function: cubic-bezier(1,0,0,1)} 20% {transform: translate(118px,600px)} 55% {transform: translate(118px,600px);animation-timing-function: cubic-bezier(1,0,0,1)} 62.5% {transform: translate(118px,120px)} 100% {transform: translate(118px,120px)}} #e1s09Auoj2J74_to {animation: e1s09Auoj2J74_to__to 10000ms linear infinite alternate-reverse forwards}@keyframes e1s09Auoj2J74_to__to { 0% {transform: translate(58px,120px)} 12.5% {transform: translate(58px,120px);animation-timing-function: cubic-bezier(0.42,0,1,1)} 25% {transform: translate(238px,120px)} 55% {transform: translate(238px,120px)} 62.5% {transform: translate(58px,120px)} 100% {transform: translate(58px,120px)}} #e1s09Auoj2J77_to {animation: e1s09Auoj2J77_to__to 10000ms linear infinite alternate-reverse forwards}@keyframes e1s09Auoj2J77_to__to { 0% {offset-distance: 0%} 12.5% {offset-distance: 0%;animation-timing-function: cubic-bezier(0.42,0,0.58,1)} 26.25% {offset-distance: 49.673283%} 55% {offset-distance: 49.712888%;animation-timing-function: cubic-bezier(0.42,0,0.58,1)} 62.5% {offset-distance: 100%} 100% {offset-distance: 100%}} #e1s09Auoj2J80 {animation: e1s09Auoj2J80_c_o 10000ms linear infinite alternate-reverse forwards}@keyframes e1s09Auoj2J80_c_o { 0% {opacity: 0} 25% {opacity: 0} 31.25% {opacity: 1} 52.5% {opacity: 1} 58.75% {opacity: 0} 100% {opacity: 0}} #e1s09Auoj2J83 {animation: e1s09Auoj2J83_c_o 10000ms linear infinite alternate-reverse forwards}@keyframes e1s09Auoj2J83_c_o { 0% {opacity: 0} 25% {opacity: 0} 31.25% {opacity: 1} 52.5% {opacity: 1} 58.75% {opacity: 0} 100% {opacity: 0}} #e1s09Auoj2J86 {animation: e1s09Auoj2J86_c_o 10000ms linear infinite alternate-reverse forwards}@keyframes e1s09Auoj2J86_c_o { 0% {opacity: 0.4} 8.75% {opacity: 0.4} 12.5% {opacity: 0} 71.25% {opacity: 0} 75% {opacity: 0.4} 100% {opacity: 0.4}} #e1s09Auoj2J87 {animation: e1s09Auoj2J87_c_o 10000ms linear infinite alternate-reverse forwards}@keyframes e1s09Auoj2J87_c_o { 0% {opacity: 0.4} 8.75% {opacity: 0.4} 12.5% {opacity: 0} 71.25% {opacity: 0} 75% {opacity: 0.4} 100% {opacity: 0.4}} #e1s09Auoj2J88_to {animation: e1s09Auoj2J88_to__to 10000ms linear infinite alternate-reverse forwards}@keyframes e1s09Auoj2J88_to__to { 0% {offset-distance: 0%} 12.5% {offset-distance: 0%;animation-timing-function: cubic-bezier(0.42,0,0.58,1)} 25% {offset-distance: 49.943911%} 56.25% {offset-distance: 50.000193%;animation-timing-function: cubic-bezier(0.42,0,0.58,1)} 75% {offset-distance: 100%} 100% {offset-distance: 100%}} #e1s09Auoj2J96_to {animation: e1s09Auoj2J96_to__to 10000ms linear infinite alternate-reverse forwards}@keyframes e1s09Auoj2J96_to__to { 0% {transform: translate(600px,400.000092px)} 6.25% {transform: translate(600px,400.000092px);animation-timing-function: cubic-bezier(0.42,0,0.58,1)} 12.5% {transform: translate(600px,959.999908px)} 71.25% {transform: translate(600px,959.999908px)} 81.25% {transform: translate(600px,399.999908px)} 100% {transform: translate(600px,399.999908px)}}
]]></style>
<g opacity="0.2"><g><line x1="-635" y1="0" x2="641" y2="0" transform="translate(637 80)" fill="none" stroke="#478293" stroke-width="3" stroke-dashoffset="160" stroke-dasharray="4,4"/><line x1="-635" y1="0" x2="641" y2="0" transform="translate(637 40)" fill="none" stroke="#478293" stroke-width="3" stroke-dashoffset="160" stroke-dasharray="4,4"/><line x1="-635" y1="0" x2="641" y2="0" transform="translate(637 120)" fill="none" stroke="#478293" stroke-width="3" stroke-dashoffset="160" stroke-dasharray="4,4"/><line x1="-635" y1="0" x2="641" y2="0" transform="translate(637 200)" fill="none" stroke="#478293" stroke-width="3" stroke-dashoffset="160" stroke-dasharray="4,4"/><line x1="-635" y1="0" x2="641" y2="0" transform="translate(637 280)" fill="none" stroke="#478293" stroke-width="3" stroke-dashoffset="160" stroke-dasharray="4,4"/><line x1="-635" y1="0" x2="641" y2="0" transform="translate(637 360)" fill="none" stroke="#478293" stroke-width="3" stroke-dashoffset="160" stroke-dasharray="4,4"/><line x1="-635" y1="0" x2="641" y2="0" transform="translate(637 440)" fill="none" stroke="#478293" stroke-width="3" stroke-dashoffset="160" stroke-dasharray="4,4"/><line x1="-635" y1="0" x2="641" y2="0" transform="translate(637 520)" fill="none" stroke="#478293" stroke-width="3" stroke-dashoffset="160" stroke-dasharray="4,4"/><line x1="-635" y1="0" x2="641" y2="0" transform="translate(637 600)" fill="none" stroke="#478293" stroke-width="3" stroke-dashoffset="160" stroke-dasharray="4,4"/><line x1="-635" y1="0" x2="641" y2="0" transform="translate(637 680)" fill="none" stroke="#478293" stroke-width="3" stroke-dashoffset="160" stroke-dasharray="4,4"/><line x1="-635" y1="0" x2="641" y2="0" transform="translate(637 160)" fill="none" stroke="#478293" stroke-width="3" stroke-dashoffset="160" stroke-dasharray="4,4"/><line x1="-635" y1="0" x2="641" y2="0" transform="translate(637 240)" fill="none" stroke="#478293" stroke-width="3" stroke-dashoffset="160" stroke-dasharray="4,4"/><line x1="-635" y1="0" x2="641" y2="0" transform="translate(637 320)" fill="none" stroke="#478293" stroke-width="3" stroke-dashoffset="160" stroke-dasharray="4,4"/><line x1="-635" y1="0" x2="641" y2="0" transform="translate(637 400)" fill="none" stroke="#478293" stroke-width="3" stroke-dashoffset="160" stroke-dasharray="4,4"/><line x1="-635" y1="0" x2="641" y2="0" transform="translate(637 480)" fill="none" stroke="#478293" stroke-width="3" stroke-dashoffset="160" stroke-dasharray="4,4"/><line x1="-635" y1="0" x2="641" y2="0" transform="translate(637 560)" fill="none" stroke="#478293" stroke-width="3" stroke-dashoffset="81.066667" stroke-dasharray="4,4"/><line x1="-635" y1="0" x2="641" y2="0" transform="translate(637 640)" fill="none" stroke="#478293" stroke-width="3" stroke-dashoffset="160" stroke-dasharray="4,4"/></g><g transform="translate(0 2)"><line x1="0" y1="-335" x2="0" y2="381" transform="translate(80 335)" fill="none" stroke="#478293" stroke-width="3" stroke-linejoin="round" stroke-dasharray="4,4"/><line x1="0" y1="-335" x2="0" y2="381" transform="translate(120 335)" fill="none" stroke="#478293" stroke-width="3" stroke-linejoin="round" stroke-dasharray="4,4"/><line x1="0" y1="-335" x2="0" y2="381" transform="translate(40 335)" fill="none" stroke="#478293" stroke-width="3" stroke-linejoin="round" stroke-dasharray="4,4"/><line x1="0" y1="-335" x2="0" y2="381" transform="translate(160 335)" fill="none" stroke="#478293" stroke-width="3" stroke-linejoin="round" stroke-dasharray="4,4"/><line x1="0" y1="-335" x2="0" y2="381" transform="translate(200 335)" fill="none" stroke="#478293" stroke-width="3" stroke-linejoin="round" stroke-dasharray="4,4"/><line x1="0" y1="-335" x2="0" y2="381" transform="translate(240 335)" fill="none" stroke="#478293" stroke-width="3" stroke-linejoin="round" stroke-dasharray="4,4"/><line x1="0" y1="-335" x2="0" y2="381" transform="translate(280 335)" fill="none" stroke="#478293" stroke-width="3" stroke-linejoin="round" stroke-dasharray="4,4"/><line x1="0" y1="-335" x2="0" y2="381" transform="translate(320 335)" fill="none" stroke="#478293" stroke-width="3" stroke-linejoin="round" stroke-dasharray="4,4"/><line x1="0" y1="-335" x2="0" y2="381" transform="translate(360 335)" fill="none" stroke="#478293" stroke-width="3" stroke-linejoin="round" stroke-dasharray="4,4"/><line x1="0" y1="-335" x2="0" y2="381" transform="translate(400 335)" fill="none" stroke="#478293" stroke-width="3" stroke-linejoin="round" stroke-dasharray="4,4"/><line x1="0" y1="-335" x2="0" y2="381" transform="translate(440 335)" fill="none" stroke="#478293" stroke-width="3" stroke-linejoin="round" stroke-dasharray="4,4"/><line x1="0" y1="-335" x2="0" y2="381" transform="translate(480 335)" fill="none" stroke="#478293" stroke-width="3" stroke-linejoin="round" stroke-dasharray="4,4"/><line x1="0" y1="-335" x2="0" y2="381" transform="translate(520 335)" fill="none" stroke="#478293" stroke-width="3" stroke-linejoin="round" stroke-dasharray="4,4"/><line x1="0" y1="-335" x2="0" y2="381" transform="translate(560 335)" fill="none" stroke="#478293" stroke-width="3" stroke-linejoin="round" stroke-dasharray="4,4"/><line x1="0" y1="-335" x2="0" y2="381" transform="translate(600 335)" fill="none" stroke="#478293" stroke-width="3" stroke-linejoin="round" stroke-dasharray="4,4"/><line x1="0" y1="-335" x2="0" y2="381" transform="translate(640 335)" fill="none" stroke="#478293" stroke-width="3" stroke-linejoin="round" stroke-dasharray="4,4"/><line x1="0" y1="-335" x2="0" y2="381" transform="translate(680 335)" fill="none" stroke="#478293" stroke-width="3" stroke-linejoin="round" stroke-dasharray="4,4"/><line x1="0" y1="-335" x2="0" y2="381" transform="translate(720 335)" fill="none" stroke="#478293" stroke-width="3" stroke-linejoin="round" stroke-dasharray="4,4"/><line x1="0" y1="-335" x2="0" y2="381" transform="translate(760 335)" fill="none" stroke="#478293" stroke-width="3" stroke-linejoin="round" stroke-dasharray="4,4"/><line x1="0" y1="-335" x2="0" y2="381" transform="translate(800 335)" fill="none" stroke="#478293" stroke-width="3" stroke-linejoin="round" stroke-dasharray="4,4"/><line x1="0" y1="-335" x2="0" y2="381" transform="translate(840 335)" fill="none" stroke="#478293" stroke-width="3" stroke-linejoin="round" stroke-dasharray="4,4"/><line x1="0" y1="-335" x2="0" y2="381" transform="translate(880 335)" fill="none" stroke="#478293" stroke-width="3" stroke-linejoin="round" stroke-dasharray="4,4"/><line x1="0" y1="-335" x2="0" y2="381" transform="translate(920 335)" fill="none" stroke="#478293" stroke-width="3" stroke-linejoin="round" stroke-dasharray="4,4"/><line x1="0" y1="-335" x2="0" y2="381" transform="translate(960 335)" fill="none" stroke="#478293" stroke-width="3" stroke-linejoin="round" stroke-dasharray="4,4"/><line x1="0" y1="-335" x2="0" y2="381" transform="translate(1000 335)" fill="none" stroke="#478293" stroke-width="3" stroke-linejoin="round" stroke-dasharray="4,4"/><line x1="0" y1="-335" x2="0" y2="381" transform="translate(1040 335)" fill="none" stroke="#478293" stroke-width="3" stroke-linejoin="round" stroke-dasharray="4,4"/><line x1="0" y1="-335" x2="0" y2="381" transform="translate(1080 335)" fill="none" stroke="#478293" stroke-width="3" stroke-linejoin="round" stroke-dasharray="4,4"/><line x1="0" y1="-335" x2="0" y2="381" transform="translate(1120 335)" fill="none" stroke="#478293" stroke-width="3" stroke-linejoin="round" stroke-dasharray="4,4"/><line x1="0" y1="-335" x2="0" y2="381" transform="translate(1160 335)" fill="none" stroke="#478293" stroke-width="3" stroke-linejoin="round" stroke-dasharray="4,4"/><line x1="0" y1="-335" x2="0" y2="381" transform="translate(1200 335)" fill="none" stroke="#478293" stroke-width="3" stroke-linejoin="round" stroke-dasharray="4,4"/><line x1="0" y1="-335" x2="0" y2="381" transform="translate(1240 335)" fill="none" stroke="#478293" stroke-width="3" stroke-linejoin="round" stroke-dasharray="4,4"/></g></g><g id="e1s09Auoj2J53_ts" transform="translate(640,360) scale(1.083334,1.142861)"><rect width="960" height="560" rx="0" ry="0" transform="translate(-480,-280)" fill="#478293" stroke-width="0"/></g><g mask="url(#e1s09Auoj2J59)"><g id="e1s09Auoj2J55_to" transform="translate(639.999985,840.000107)"><g id="e1s09Auoj2J55" transform="translate(-639.999985,-360.000106)" opacity="0"><rect width="319.999582" height="53.311345" rx="0" ry="0" transform="matrix(1 0 0 1.125464 480.000209 170.000409)" opacity="0.4" fill="#fff" stroke-width="0"/><rect width="319.999582" height="71.081402" rx="0" ry="0" transform="matrix(1 0 0 2.110254 480.000209 240.000198)" opacity="0.4" fill="#fff" stroke-width="0"/><rect width="319.999582" height="71.081402" rx="0" ry="0" transform="matrix(1 0 0 2.110254 480.000209 400.000198)" opacity="0.4" fill="#fff" stroke-width="0"/></g></g><mask id="e1s09Auoj2J59" mask-type="luminance" x="-150%" y="-150%" height="400%" width="400%"><rect width="320.000209" height="560" rx="0" ry="0" transform="translate(480 80)" fill="#d2dbed" stroke-width="0"/></mask></g><rect width="319.999582" height="80" rx="0" ry="0" transform="translate(480.000209 560)" fill="#478293" stroke-width="0"/><line id="e1s09Auoj2J62" x1="-160" y1="0" x2="160" y2="0" transform="translate(640.000209 560)" opacity="0" stroke="#fff" stroke-width="3"/><g id="e1s09Auoj2J63_to" transform="translate(640,120)"><g id="e1s09Auoj2J63_ts" transform="scale(1,1)"><line x1="-519.99984" y1="0" x2="519.99984" y2="0" transform="translate(0,0)" opacity="0.2" fill="none" stroke="#fff" stroke-width="3"/></g></g><g id="e1s09Auoj2J64_to" transform="translate(1046,80)"><g transform="translate(-184,-120)"><g id="e1s09Auoj2J65_to" transform="translate(238,120)"><g transform="translate(-238,-120)"><ellipse rx="20" ry="20" transform="translate(238 120)" fill="#fff" fill-opacity="0.4" stroke-width="0"/><path d="M43.786293,42.755827c-1.463012-2.630242-3.717568-4.516266-6.348684-5.410329c2.675099-1.656068,3.95653-4.966655,3.130691-8.088166s-3.55539-5.284537-6.668625-5.284537-5.842787,2.163027-6.668626,5.284537.455592,6.432098,3.130692,8.088166c-2.631116.893064-4.885672,2.779087-6.348684,5.410329-.146061.247665-.151365.558252-.013852.811154s.396176.408275.675546.405782.535433-.162456.668753-.417774c1.809793-3.25259,5.008631-5.194555,8.556171-5.194555s6.746377,1.941965,8.55617,5.194555c.133321.255318.389383.415282.668753.417774s.538035-.15288.675547-.405782.132209-.563489-.013852-.811154ZM28.520248,31.167973c0-3.089556,2.408451-5.594136,5.379427-5.594136s5.379427,2.50458,5.379427,5.594136-2.408452,5.594137-5.379427,5.594137c-2.969659-.003304-5.37625-2.50595-5.379427-5.594137Z" transform="translate(204.100325 86.027205)" fill="#478293"/></g></g><g id="e1s09Auoj2J68_to" transform="translate(178,120)"><g transform="translate(-178,-120)"><ellipse rx="20" ry="20" transform="translate(178 120)" fill="#fff" fill-opacity="0.4" stroke-width="0"/><path d="M42,24c-5.520334.006062-9.993938,4.479666-10,10v8.433c.001102.864973.702027,1.565898,1.567,1.567L42,44c5.522848,0,10-4.477152,10-10s-4.477152-10-10-10Zm0,18.4h-8.4v-8.4c0-4.639192,3.760808-8.4,8.4-8.4s8.4,3.760808,8.4,8.4-3.760808,8.4-8.4,8.4Zm1.2-8c0,.662742-.537258,1.2-1.2,1.2s-1.2-.537258-1.2-1.2.537258-1.2,1.2-1.2s1.2.537258,1.2,1.2Zm-4.4,0c0,.662742-.537258,1.2-1.2,1.2s-1.2-.537258-1.2-1.2.537258-1.2,1.2-1.2s1.2.537258,1.2,1.2Zm8.8,0c0,.662742-.537258,1.2-1.2,1.2s-1.2-.537258-1.2-1.2.537258-1.2,1.2-1.2s1.2.537258,1.2,1.2Z" transform="translate(136 86)" fill="#478293"/></g></g><g id="e1s09Auoj2J71_to" transform="translate(118,120)"><g transform="translate(-118,-120)"><ellipse rx="20" ry="20" transform="translate(118 120)" fill="#fff" fill-opacity="0.4" stroke-width="0"/><path d="M160.51749,118.951886c-3.757909-5.974332-9.343989-22.878692-9.343989-44.957475C151.173501,46.38326,126.921636,24,97.005446,24s-54.168053,22.38326-54.168053,49.994411c0,22.085032-5.592852,38.983143-9.350761,44.957475-1.953275,3.091464-1.967481,6.910686-.037249,10.014455s5.510545,5.018772,9.38801,5.021364h27.632478c2.576448,11.635822,13.667798,19.992148,26.535575,19.992148s23.959129-8.356326,26.535576-19.992148h27.632479c3.876254-.004825,7.454349-1.920709,9.382928-5.024069s1.913729-6.92125-.038939-10.01175ZM97.005446,143.986587c0,0-13.021082-4.007958-15.316016-9.998882h30.632033c-2.294935,5.990924-8.43121,9.996918-15.316017,9.998882ZM42.837393,123.988823c5.213675-8.274075,10.833611-27.446932,10.833611-49.994412c0-22.08892,19.40149-39.995528,43.334442-39.995528s43.334444,17.906608,43.334444,39.995528c0,22.528732,5.606393,41.701589,10.833611,49.994412Z" transform="matrix(.153869 0 0 0.15387 103.074389 106.30712)" fill="#478293"/></g></g><g id="e1s09Auoj2J74_to" transform="translate(58,120)"><g transform="translate(-118,-120)"><ellipse rx="20" ry="20" transform="translate(118 120)" fill="#fff" fill-opacity="0.4" stroke-width="0"/><path d="M52,42c0,.460237-.373096.833333-.833333.833333h-8.333334v8.333334C42.833333,51.626904,42.460237,52,42,52s-.833333-.373096-.833333-.833333v-8.333334h-8.333334C32.373096,42.833333,32,42.460237,32,42s.373096-.833333.833333-.833333h8.333334v-8.333334C41.166667,32.373096,41.539763,32,42,32s.833333.373096.833333.833333v8.333334h8.333334C51.626904,41.166667,52,41.539763,52,42Z" transform="translate(76 77.998159)" fill="#478293"/></g></g><g id="e1s09Auoj2J77_to" style="offset-path:path('M-2,120C64.383677,235.548962,66.108936,461.411592,58,600L58,599.610059C-16.139229,484.970133,-45.238046,245.094861,-2,119.998159');offset-rotate:0deg"><g transform="translate(-118,-120)"><ellipse rx="20" ry="20" transform="translate(118 120)" fill="#fff" fill-opacity="0.4" stroke-width="0"/><path d="M75.095428,40C55.712758,40,40,55.712758,40,75.095428s15.712758,35.095428,35.095428,35.095428s35.095428-15.712758,35.095428-35.095428-15.712758-35.095428-35.095428-35.095428Zm0,56.152685c-11.629602,0-21.057257-9.427655-21.057257-21.057257s9.427655-21.057257,21.057257-21.057257s21.057257,9.427655,21.057257,21.057257-9.427655,21.057257-21.057257,21.057257Zm84.229027,14.038171c19.38267,0,35.095428-15.712758,35.095428-35.095428s-15.712758-35.095428-35.095428-35.095428-35.095428,15.712758-35.095428,35.095428s15.712759,35.095428,35.095428,35.095428Zm0-56.152685c11.629602,0,21.057257,9.427655,21.057257,21.057257s-9.427655,21.057257-21.057257,21.057257-21.057257-9.427655-21.057257-21.057257s9.427655-21.057257,21.057257-21.057257ZM75.095428,124.229027C55.712758,124.229027,40,139.941786,40,159.324455s15.712758,35.095428,35.095428,35.095428s35.095428-15.712758,35.095428-35.095428-15.712758-35.095428-35.095428-35.095428Zm0,56.152685c-11.629602,0-21.057257-9.427655-21.057257-21.057257s9.427655-21.057257,21.057257-21.057257s21.057257,9.427655,21.057257,21.057257-9.427655,21.057257-21.057257,21.057257Zm84.229027-56.152685c-19.382669,0-35.095428,15.712759-35.095428,35.095428s15.712759,35.095428,35.095428,35.095428s35.095428-15.712758,35.095428-35.095428-15.712758-35.095428-35.095428-35.095428Zm0,56.152685c-11.629602,0-21.057257-9.427655-21.057257-21.057257s9.427655-21.057257,21.057257-21.057257s21.057257,9.427655,21.057257,21.057257-9.427655,21.057257-21.057257,21.057257Z" transform="matrix(.129517 0 0 0.129517 102.81932 104.81932)" fill="#478293"/></g></g></g></g><g id="e1s09Auoj2J80" transform="translate(402 480)" opacity="0"><path d="M0,20C0,8.954305,8.954305,0,20,0v0C31.045695,0,40,8.954305,40,20s-8.954305,20-20,20v0C8.954305,40,0,31.045695,0,20Z" transform="translate(98 100)" fill="#fff" fill-opacity="0.4" stroke-width="0"/><path d="M51.461457,31.992987l-8.333333-7.548642c-.004076-.003412-.007904-.007087-.011458-.011001-.635771-.555112-1.606936-.555112-2.242708,0l-.011458.011001-8.323958,7.548642c-.343287.303067-.538613.730357-.538542,1.178101v9.245786c0,.883731.746192,1.600136,1.666667,1.600136h4.999999c.920475,0,1.666667-.716405,1.666667-1.600136v-4.800408h3.333333v4.800408c0,.883731.746192,1.600136,1.666667,1.600136h4.999999c.920475,0,1.666667-.716405,1.666667-1.600136v-9.245786c.000071-.447744-.195255-.875034-.538542-1.178101ZM50.333332,42.416874h-4.999999v-4.800408c0-.883731-.746192-1.600136-1.666667-1.600136h-3.333333c-.920475,0-1.666667.716405-1.666667,1.600136v4.800408h-4.999999v-9.245786l.011458-.010001l8.321874-7.545642l8.322917,7.543642.011458.01Z" transform="translate(76 85.98299)" fill="#478293"/></g><g id="e1s09Auoj2J83" transform="translate(402 0)" opacity="0"><path d="M0,20C0,8.954305,8.954305,0,20,0v0C31.045695,0,40,8.954305,40,20s-8.954305,20-20,20v0C8.954305,40,0,31.045695,0,20Z" transform="translate(98 100)" fill="#fff" fill-opacity="0.4" stroke-width="0"/><path d="M52,63.5c0,.460237-.373096.833333-.833333.833333h-18.333334C32.373096,64.333333,32,63.960237,32,63.5s.373096-.833333.833333-.833333h18.333334c.460237,0,.833333.373096.833333.833333ZM32.833333,57.666667h18.333334c.460237,0,.833333-.373096.833333-.833334s-.373096-.833333-.833333-.833333h-18.333334C32.373096,56,32,56.373096,32,56.833333s.373096.833334.833333.833334ZM51.166667,69.333333h-18.333334c-.460237,0-.833333.373096-.833333.833334s.373096.833333.833333.833333h18.333334C51.626904,71,52,70.626904,52,70.166667s-.373096-.833334-.833333-.833334Z" transform="translate(76 56.5)" fill="#478293"/></g><rect id="e1s09Auoj2J86" width="200" height="479.999822" rx="20" ry="20" transform="translate(160 160.000178)" opacity="0.4" fill="#fff" stroke-width="0"/><rect id="e1s09Auoj2J87" width="280" height="480" rx="20" ry="20" transform="translate(840 160)" opacity="0.4" fill="#fff" stroke-width="0"/><g id="e1s09Auoj2J88_to" style="offset-path:path('M180.00004,80.00002C180.00004,80,640.591319,119.998161,640.00004,120.00002L640.520368,119.998391Q180.00004,80.00002,180.00004,80.00002');offset-rotate:0deg"><g transform="scale(0.111111,0.111111) translate(-180.000471,-180.000003)"><path d="M107.521,107.018c18.593-18.466,44.204-29.8752,72.48-29.8752c2.954,0,5.879.1245,8.771.3688c2.788.2353,5.331-1.6722,5.941-4.4028c5.842-26.1509,24.96-47.2924,49.911-55.9805c2.329-.8113,2.569-4.1871.267-5.0768C224.76,4.26806,202.879,0,180.001,0c-26.452,0-51.572,5.706-74.195,15.9539-1.809.8193-2.948,2.6331-2.948,4.6186v84.5925c0,2.369,2.982,3.522,4.663,1.853Z" opacity="0.4" fill="#f2f8f9"/><path d="M286.861,324.861c-1.671,1.235-4.004.026-4.004-2.054v-142.807c0-2.954-.123-5.88-.367-8.771-.237-2.788,1.671-5.331,4.402-5.941c26.152-5.842,47.291-24.96,55.98-49.911.81-2.33,4.187-2.569,5.076-.268c7.784,20.132,12.053,42.013,12.053,64.891c0,59.4-28.772,112.078-73.14,144.861Z" opacity="0.4" fill="#f2f8f9"/><path d="M321.429,89.9999c0,28.4031-23.025,51.4281-51.429,51.4281s-51.429-23.025-51.429-51.4281c0-28.4033,23.025-51.4286,51.429-51.4286s51.429,23.0253,51.429,51.4286Z" opacity="0.8" fill="#fff"/><path d="M17.1283,244.623c-.8113,2.329-4.1871,2.568-5.0768.267C4.26802,224.759,-0.000061,202.878,-0.000061,180c0-59.399,28.771861-112.0782,73.139561-144.8614c1.6714-1.2353,4.0037-.0244,4.0037,2.0541v142.8073c0,2.955.1245,5.88.3687,8.771.2353,2.788-1.6722,5.331-4.4028,5.941-26.151,5.842-47.2927,24.96-55.9808,49.911Z" opacity="0.4" fill="#f2f8f9"/><path d="M254.193,344.047c1.811-.82,2.95-2.633,2.95-4.618v-84.595c0-2.369-2.983-3.521-4.665-1.852-18.591,18.466-44.203,29.875-72.479,29.875-2.954,0-5.879-.123-8.77-.368-2.788-.236-5.332,1.672-5.941,4.403-5.842,26.151-24.96,47.291-49.912,55.98-2.33.812-2.568,4.186-.267,5.076C135.24,355.731,157.121,360,179.999,360c26.453,0,51.573-5.706,74.194-15.953Z" opacity="0.4" fill="#f2f8f9"/><path d="M141.431,270c0,28.404-23.026,51.429-51.4292,51.429-28.4034,0-51.4289-23.025-51.4289-51.429s23.0255-51.429,51.4289-51.429c28.4032,0,51.4292,23.025,51.4292,51.429Z" opacity="0.8" fill="#fff"/></g></g><g mask="url(#e1s09Auoj2J100)"><g id="e1s09Auoj2J96_to" transform="translate(600,399.999908)"><g transform="translate(-600,-400.000091)"><rect width="400" height="79.999822" rx="20" ry="20" transform="translate(400 160.000178)" opacity="0.4" fill="#fff" stroke-width="0"/><rect width="400" height="180" rx="20" ry="20" transform="translate(400 260)" opacity="0.4" fill="#fff" stroke-width="0"/><rect width="400" height="180" rx="20" ry="20" transform="translate(400 460)" opacity="0.4" fill="#fff" stroke-width="0"/></g></g><mask id="e1s09Auoj2J100" mask-type="luminance" x="-150%" y="-150%" height="400%" width="400%"><rect width="1039.99984" height="640.00041" rx="0" ry="0" transform="translate(120 40)" fill="#d2dbed" stroke-width="0"/></mask></g></svg>
